<svg id="visual" viewBox="0 0 1280 720" width="1280" height="720" xmlns="http://www.w3.org/2000/svg" xmlns:xlink="http://www.w3.org/1999/xlink" version="1.1"><g stroke-width="1" stroke-linejoin="bevel"><path d="M580.8 413.4L572.8 282.6L495.5 397.4Z" fill="#2550dd" stroke="#2550dd"></path><path d="M572.8 282.6L446.5 284.6L495.5 397.4Z" fill="#001a30" stroke="#001a30"></path><path d="M544.8 244.7L446.5 284.6L572.8 282.6Z" fill="#2550dd" stroke="#2550dd"></path><path d="M544.8 244.7L430.5 230.7L446.5 284.6Z" fill="#00101c" stroke="#00101c"></path><path d="M314.1 346.6L380.1 411.4L446.5 284.6Z" fill="#0046b1" stroke="#0046b1"></path><path d="M446.5 284.6L380.1 411.4L495.5 397.4Z" fill="#3854f2" stroke="#3854f2"></path><path d="M495.5 397.4L471.5 540.3L580.8 413.4Z" fill="#3854f2" stroke="#3854f2"></path><path d="M580.8 413.4L711.2 268.6L572.8 282.6Z" fill="#2550dd" stroke="#2550dd"></path><path d="M572.8 282.6L669.2 116.9L544.8 244.7Z" fill="#002345" stroke="#002345"></path><path d="M663.2 545.3L714.2 437.4L580.8 413.4Z" fill="#001a30" stroke="#001a30"></path><path d="M580.8 413.4L714.2 437.4L711.2 268.6Z" fill="#00101c" stroke="#00101c"></path><path d="M380.1 411.4L471.5 540.3L495.5 397.4Z" fill="#0046b1" stroke="#0046b1"></path><path d="M471.5 540.3L614.8 550.3L580.8 413.4Z" fill="#003a86" stroke="#003a86"></path><path d="M614.8 550.3L663.2 545.3L580.8 413.4Z" fill="#3854f2" stroke="#3854f2"></path><path d="M430.5 230.7L314.1 346.6L446.5 284.6Z" fill="#002b5b" stroke="#002b5b"></path><path d="M380.1 411.4L377.1 526.3L471.5 540.3Z" fill="#3854f2" stroke="#3854f2"></path><path d="M797.5 487.3L775.5 423.4L714.2 437.4Z" fill="#0046b1" stroke="#0046b1"></path><path d="M714.2 437.4L775.5 423.4L711.2 268.6Z" fill="#00409c" stroke="#00409c"></path><path d="M452.5 117.9L388.1 165.7L430.5 230.7Z" fill="#0046b1" stroke="#0046b1"></path><path d="M430.5 230.7L271.7 215.7L314.1 346.6Z" fill="#0046b1" stroke="#0046b1"></path><path d="M452.5 117.9L430.5 230.7L544.8 244.7Z" fill="#001a30" stroke="#001a30"></path><path d="M268.7 539.3L377.1 526.3L380.1 411.4Z" fill="#002345" stroke="#002345"></path><path d="M826.5 196.7L726.2 174.7L711.2 268.6Z" fill="#002b5b" stroke="#002b5b"></path><path d="M711.2 268.6L726.2 174.7L572.8 282.6Z" fill="#002b5b" stroke="#002b5b"></path><path d="M585.8 72.9L452.5 117.9L544.8 244.7Z" fill="#124bc7" stroke="#124bc7"></path><path d="M726.2 174.7L669.2 116.9L572.8 282.6Z" fill="#00409c" stroke="#00409c"></path><path d="M453.5 604.1L599.8 611.1L471.5 540.3Z" fill="#003370" stroke="#003370"></path><path d="M471.5 540.3L599.8 611.1L614.8 550.3Z" fill="#002b5b" stroke="#002b5b"></path><path d="M614.8 550.3L599.8 611.1L663.2 545.3Z" fill="#001a30" stroke="#001a30"></path><path d="M377.1 526.3L453.5 604.1L471.5 540.3Z" fill="#003370" stroke="#003370"></path><path d="M669.2 116.9L585.8 72.9L544.8 244.7Z" fill="#0046b1" stroke="#0046b1"></path><path d="M663.2 545.3L797.5 487.3L714.2 437.4Z" fill="#00409c" stroke="#00409c"></path><path d="M775.5 423.4L843.5 282.6L711.2 268.6Z" fill="#3854f2" stroke="#3854f2"></path><path d="M812.5 588.1L797.5 487.3L663.2 545.3Z" fill="#002345" stroke="#002345"></path><path d="M897.9 402.4L843.5 282.6L775.5 423.4Z" fill="#002345" stroke="#002345"></path><path d="M726.2 174.7L775.5 97.9L669.2 116.9Z" fill="#2550dd" stroke="#2550dd"></path><path d="M388.1 165.7L271.7 215.7L430.5 230.7Z" fill="#002345" stroke="#002345"></path><path d="M340.1 122.9L271.7 215.7L388.1 165.7Z" fill="#003370" stroke="#003370"></path><path d="M327.1 0L340.1 122.9L452.5 117.9Z" fill="#002345" stroke="#002345"></path><path d="M452.5 117.9L340.1 122.9L388.1 165.7Z" fill="#003a86" stroke="#003a86"></path><path d="M221.7 269.6L244.7 402.4L314.1 346.6Z" fill="#2550dd" stroke="#2550dd"></path><path d="M314.1 346.6L244.7 402.4L380.1 411.4Z" fill="#124bc7" stroke="#124bc7"></path><path d="M377.1 526.3L333.1 611.1L453.5 604.1Z" fill="#3854f2" stroke="#3854f2"></path><path d="M843.5 282.6L826.5 196.7L711.2 268.6Z" fill="#00409c" stroke="#00409c"></path><path d="M680.2 0L579.8 0L585.8 72.9Z" fill="#002b5b" stroke="#002b5b"></path><path d="M126.4 218.7L221.7 269.6L271.7 215.7Z" fill="#002345" stroke="#002345"></path><path d="M271.7 215.7L221.7 269.6L314.1 346.6Z" fill="#003a86" stroke="#003a86"></path><path d="M676.2 720L735.2 630.1L599.8 611.1Z" fill="#2550dd" stroke="#2550dd"></path><path d="M599.8 611.1L735.2 630.1L663.2 545.3Z" fill="#003a86" stroke="#003a86"></path><path d="M244.7 402.4L268.7 539.3L380.1 411.4Z" fill="#003370" stroke="#003370"></path><path d="M268.7 539.3L333.1 611.1L377.1 526.3Z" fill="#001a30" stroke="#001a30"></path><path d="M444.5 720L617.8 720L599.8 611.1Z" fill="#00101c" stroke="#00101c"></path><path d="M826.5 196.7L775.5 97.9L726.2 174.7Z" fill="#002b5b" stroke="#002b5b"></path><path d="M680.2 0L585.8 72.9L669.2 116.9Z" fill="#002345" stroke="#002345"></path><path d="M585.8 72.9L478.5 0L452.5 117.9Z" fill="#00101c" stroke="#00101c"></path><path d="M959.9 497.3L897.9 402.4L797.5 487.3Z" fill="#00409c" stroke="#00409c"></path><path d="M797.5 487.3L897.9 402.4L775.5 423.4Z" fill="#124bc7" stroke="#124bc7"></path><path d="M843.5 282.6L901.9 294.6L826.5 196.7Z" fill="#00101c" stroke="#00101c"></path><path d="M735.2 630.1L812.5 588.1L663.2 545.3Z" fill="#002345" stroke="#002345"></path><path d="M579.8 0L478.5 0L585.8 72.9Z" fill="#001a30" stroke="#001a30"></path><path d="M897.9 402.4L901.9 294.6L843.5 282.6Z" fill="#3854f2" stroke="#3854f2"></path><path d="M826.5 196.7L907.9 111.9L775.5 97.9Z" fill="#0046b1" stroke="#0046b1"></path><path d="M256.7 0L259.7 136.9L340.1 122.9Z" fill="#001a30" stroke="#001a30"></path><path d="M340.1 122.9L259.7 136.9L271.7 215.7Z" fill="#00409c" stroke="#00409c"></path><path d="M775.5 97.9L680.2 0L669.2 116.9Z" fill="#124bc7" stroke="#124bc7"></path><path d="M444.5 720L599.8 611.1L453.5 604.1Z" fill="#00409c" stroke="#00409c"></path><path d="M735.2 630.1L784.5 720L812.5 588.1Z" fill="#00101c" stroke="#00101c"></path><path d="M354.1 720L444.5 720L453.5 604.1Z" fill="#00101c" stroke="#00101c"></path><path d="M617.8 720L676.2 720L599.8 611.1Z" fill="#003370" stroke="#003370"></path><path d="M126.4 218.7L154.4 300.6L221.7 269.6Z" fill="#0046b1" stroke="#0046b1"></path><path d="M221.7 269.6L154.4 300.6L244.7 402.4Z" fill="#124bc7" stroke="#124bc7"></path><path d="M244.7 402.4L91.4 522.3L268.7 539.3Z" fill="#003370" stroke="#003370"></path><path d="M268.7 539.3L248.7 617.1L333.1 611.1Z" fill="#00101c" stroke="#00101c"></path><path d="M333.1 611.1L354.1 720L453.5 604.1Z" fill="#00409c" stroke="#00409c"></path><path d="M91.4 522.3L248.7 617.1L268.7 539.3Z" fill="#002b5b" stroke="#002b5b"></path><path d="M478.5 0L327.1 0L452.5 117.9Z" fill="#002345" stroke="#002345"></path><path d="M259.7 136.9L126.4 218.7L271.7 215.7Z" fill="#0046b1" stroke="#0046b1"></path><path d="M248.7 617.1L354.1 720L333.1 611.1Z" fill="#00409c" stroke="#00409c"></path><path d="M955.9 186.7L907.9 111.9L826.5 196.7Z" fill="#00101c" stroke="#00101c"></path><path d="M775.5 97.9L852.5 0L680.2 0Z" fill="#003a86" stroke="#003a86"></path><path d="M812.5 588.1L959.9 497.3L797.5 487.3Z" fill="#2550dd" stroke="#2550dd"></path><path d="M897.9 402.4L1064.3 290.6L901.9 294.6Z" fill="#00101c" stroke="#00101c"></path><path d="M901.9 294.6L955.9 186.7L826.5 196.7Z" fill="#002345" stroke="#002345"></path><path d="M956.9 617.1L959.9 497.3L812.5 588.1Z" fill="#003a86" stroke="#003a86"></path><path d="M1020.3 187.7L955.9 186.7L1064.3 290.6Z" fill="#001a30" stroke="#001a30"></path><path d="M676.2 720L784.5 720L735.2 630.1Z" fill="#3854f2" stroke="#3854f2"></path><path d="M154.4 300.6L111.4 412.4L244.7 402.4Z" fill="#00409c" stroke="#00409c"></path><path d="M93.4 121.9L126.4 218.7L259.7 136.9Z" fill="#00409c" stroke="#00409c"></path><path d="M154.4 300.6L0 285.6L111.4 412.4Z" fill="#00101c" stroke="#00101c"></path><path d="M327.1 0L256.7 0L340.1 122.9Z" fill="#3854f2" stroke="#3854f2"></path><path d="M967.9 0L852.5 0L907.9 111.9Z" fill="#003a86" stroke="#003a86"></path><path d="M907.9 111.9L852.5 0L775.5 97.9Z" fill="#001a30" stroke="#001a30"></path><path d="M922.9 720L956.9 617.1L812.5 588.1Z" fill="#00409c" stroke="#00409c"></path><path d="M1067.3 489.3L1027.3 447.4L959.9 497.3Z" fill="#3854f2" stroke="#3854f2"></path><path d="M959.9 497.3L1027.3 447.4L897.9 402.4Z" fill="#003370" stroke="#003370"></path><path d="M0 448.4L91.4 522.3L111.4 412.4Z" fill="#0046b1" stroke="#0046b1"></path><path d="M111.4 412.4L91.4 522.3L244.7 402.4Z" fill="#2550dd" stroke="#2550dd"></path><path d="M248.7 617.1L226.7 720L354.1 720Z" fill="#002345" stroke="#002345"></path><path d="M119.4 647.1L226.7 720L248.7 617.1Z" fill="#002b5b" stroke="#002b5b"></path><path d="M1064.3 290.6L955.9 186.7L901.9 294.6Z" fill="#2550dd" stroke="#2550dd"></path><path d="M955.9 186.7L1051.3 138.9L907.9 111.9Z" fill="#00101c" stroke="#00101c"></path><path d="M256.7 0L93.4 121.9L259.7 136.9Z" fill="#00101c" stroke="#00101c"></path><path d="M126.4 218.7L0 285.6L154.4 300.6Z" fill="#00409c" stroke="#00409c"></path><path d="M1027.3 447.4L1064.3 290.6L897.9 402.4Z" fill="#003370" stroke="#003370"></path><path d="M91.4 522.3L119.4 647.1L248.7 617.1Z" fill="#003a86" stroke="#003a86"></path><path d="M784.5 720L922.9 720L812.5 588.1Z" fill="#003a86" stroke="#003a86"></path><path d="M1019.3 618.1L1067.3 489.3L959.9 497.3Z" fill="#3854f2" stroke="#3854f2"></path><path d="M1019.3 618.1L959.9 497.3L956.9 617.1Z" fill="#00409c" stroke="#00409c"></path><path d="M1188.6 393.4L1168.6 313.6L1064.3 290.6Z" fill="#001a30" stroke="#001a30"></path><path d="M1048.3 720L1019.3 618.1L956.9 617.1Z" fill="#00409c" stroke="#00409c"></path><path d="M1149.6 234.7L1051.3 138.9L1020.3 187.7Z" fill="#002345" stroke="#002345"></path><path d="M1020.3 187.7L1051.3 138.9L955.9 186.7Z" fill="#003a86" stroke="#003a86"></path><path d="M1051.3 138.9L967.9 0L907.9 111.9Z" fill="#003370" stroke="#003370"></path><path d="M0 178.7L0 285.6L126.4 218.7Z" fill="#3854f2" stroke="#3854f2"></path><path d="M91.4 522.3L0 540.3L119.4 647.1Z" fill="#124bc7" stroke="#124bc7"></path><path d="M0 285.6L0 448.4L111.4 412.4Z" fill="#00101c" stroke="#00101c"></path><path d="M0 720L129.4 720L119.4 647.1Z" fill="#0046b1" stroke="#0046b1"></path><path d="M119.4 647.1L129.4 720L226.7 720Z" fill="#003a86" stroke="#003a86"></path><path d="M93.4 121.9L0 178.7L126.4 218.7Z" fill="#002b5b" stroke="#002b5b"></path><path d="M0 87.9L0 178.7L93.4 121.9Z" fill="#3854f2" stroke="#3854f2"></path><path d="M256.7 0L87.4 0L93.4 121.9Z" fill="#003370" stroke="#003370"></path><path d="M0 448.4L0 540.3L91.4 522.3Z" fill="#124bc7" stroke="#124bc7"></path><path d="M87.4 0L0 87.9L93.4 121.9Z" fill="#002b5b" stroke="#002b5b"></path><path d="M1064.3 290.6L1149.6 234.7L1020.3 187.7Z" fill="#0046b1" stroke="#0046b1"></path><path d="M1051.3 138.9L1073.3 0L967.9 0Z" fill="#0046b1" stroke="#0046b1"></path><path d="M1168.6 313.6L1149.6 234.7L1064.3 290.6Z" fill="#3854f2" stroke="#3854f2"></path><path d="M1188.6 393.4L1064.3 290.6L1027.3 447.4Z" fill="#003a86" stroke="#003a86"></path><path d="M1188.6 393.4L1027.3 447.4L1067.3 489.3Z" fill="#002b5b" stroke="#002b5b"></path><path d="M922.9 720L1048.3 720L956.9 617.1Z" fill="#001a30" stroke="#001a30"></path><path d="M1193.6 647.1L1182.6 490.3L1067.3 489.3Z" fill="#003a86" stroke="#003a86"></path><path d="M0 540.3L0 656.1L119.4 647.1Z" fill="#002345" stroke="#002345"></path><path d="M1163.6 120.9L1073.3 0L1051.3 138.9Z" fill="#0046b1" stroke="#0046b1"></path><path d="M1182.6 490.3L1188.6 393.4L1067.3 489.3Z" fill="#2550dd" stroke="#2550dd"></path><path d="M1280 165.7L1163.6 120.9L1149.6 234.7Z" fill="#2550dd" stroke="#2550dd"></path><path d="M1193.6 647.1L1067.3 489.3L1019.3 618.1Z" fill="#001a30" stroke="#001a30"></path><path d="M87.4 0L0 0L0 87.9Z" fill="#3854f2" stroke="#3854f2"></path><path d="M1280 271.6L1149.6 234.7L1168.6 313.6Z" fill="#2550dd" stroke="#2550dd"></path><path d="M1149.6 234.7L1163.6 120.9L1051.3 138.9Z" fill="#001a30" stroke="#001a30"></path><path d="M0 656.1L0 720L119.4 647.1Z" fill="#3854f2" stroke="#3854f2"></path><path d="M1048.3 720L1124.6 720L1019.3 618.1Z" fill="#124bc7" stroke="#124bc7"></path><path d="M1280 0L1156.6 0L1163.6 120.9Z" fill="#001a30" stroke="#001a30"></path><path d="M1163.6 120.9L1156.6 0L1073.3 0Z" fill="#003a86" stroke="#003a86"></path><path d="M1280 444.4L1280 271.6L1188.6 393.4Z" fill="#002b5b" stroke="#002b5b"></path><path d="M1124.6 720L1193.6 647.1L1019.3 618.1Z" fill="#002345" stroke="#002345"></path><path d="M1188.6 393.4L1280 271.6L1168.6 313.6Z" fill="#00101c" stroke="#00101c"></path><path d="M1280 444.4L1188.6 393.4L1182.6 490.3Z" fill="#002b5b" stroke="#002b5b"></path><path d="M1280 535.3L1280 444.4L1182.6 490.3Z" fill="#002b5b" stroke="#002b5b"></path><path d="M1280 271.6L1280 165.7L1149.6 234.7Z" fill="#00101c" stroke="#00101c"></path><path d="M1280 592.1L1280 535.3L1182.6 490.3Z" fill="#003370" stroke="#003370"></path><path d="M1280 165.7L1280 137.9L1163.6 120.9Z" fill="#3854f2" stroke="#3854f2"></path><path d="M1280 720L1280 592.1L1193.6 647.1Z" fill="#002b5b" stroke="#002b5b"></path><path d="M1193.6 647.1L1280 592.1L1182.6 490.3Z" fill="#00409c" stroke="#00409c"></path><path d="M1280 137.9L1280 0L1163.6 120.9Z" fill="#3854f2" stroke="#3854f2"></path><path d="M1124.6 720L1280 720L1193.6 647.1Z" fill="#00409c" stroke="#00409c"></path></g></svg>