<svg id="visual" viewBox="0 0 960 540" width="960" height="540" xmlns="http://www.w3.org/2000/svg" xmlns:xlink="http://www.w3.org/1999/xlink" version="1.1"><g stroke-width="1" stroke-linejoin="bevel"><path d="M442.7 256L506.3 207L461.7 183Z" fill="#2c2f33" stroke="#2c2f33"></path><path d="M442.7 256L536.3 257L506.3 207Z" fill="#101922" stroke="#101922"></path><path d="M640 150L497.3 122L506.3 207Z" fill="#2c2f33" stroke="#2c2f33"></path><path d="M506.3 207L497.3 122L461.7 183Z" fill="#09151f" stroke="#09151f"></path><path d="M400.7 86L351 249L461.7 183Z" fill="#1b2229" stroke="#1b2229"></path><path d="M461.7 183L351 249L442.7 256Z" fill="#09151f" stroke="#09151f"></path><path d="M351 249L408.7 360L442.7 256Z" fill="#37383a" stroke="#37383a"></path><path d="M442.7 256L510.3 393L536.3 257Z" fill="#21262c" stroke="#21262c"></path><path d="M497.3 122L400.7 86L461.7 183Z" fill="#161d25" stroke="#161d25"></path><path d="M637 390L639 249L536.3 257Z" fill="#272a2f" stroke="#272a2f"></path><path d="M536.3 257L640 150L506.3 207Z" fill="#272a2f" stroke="#272a2f"></path><path d="M408.7 360L510.3 393L442.7 256Z" fill="#2c2f33" stroke="#2c2f33"></path><path d="M400.7 86L292 210L351 249Z" fill="#272a2f" stroke="#272a2f"></path><path d="M351 249L294 320L408.7 360Z" fill="#1b2229" stroke="#1b2229"></path><path d="M639 249L640 150L536.3 257Z" fill="#272a2f" stroke="#272a2f"></path><path d="M497.3 122L454.7 0L400.7 86Z" fill="#323436" stroke="#323436"></path><path d="M292 210L294 320L351 249Z" fill="#272a2f" stroke="#272a2f"></path><path d="M750.7 113L647 124L640 150Z" fill="#161d25" stroke="#161d25"></path><path d="M640 150L647 124L497.3 122Z" fill="#37383a" stroke="#37383a"></path><path d="M415.7 446L513.3 429L510.3 393Z" fill="#323436" stroke="#323436"></path><path d="M510.3 393L637 390L536.3 257Z" fill="#21262c" stroke="#21262c"></path><path d="M415.7 446L510.3 393L408.7 360Z" fill="#21262c" stroke="#21262c"></path><path d="M454.7 0L337 55L400.7 86Z" fill="#323436" stroke="#323436"></path><path d="M400.7 86L337 55L292 210Z" fill="#09151f" stroke="#09151f"></path><path d="M337 55L251.3 205L292 210Z" fill="#323436" stroke="#323436"></path><path d="M292 210L251.3 205L294 320Z" fill="#3d3d3d" stroke="#3d3d3d"></path><path d="M527.3 0L454.7 0L497.3 122Z" fill="#09151f" stroke="#09151f"></path><path d="M322 412L415.7 446L408.7 360Z" fill="#09151f" stroke="#09151f"></path><path d="M647 124L527.3 0L497.3 122Z" fill="#101922" stroke="#101922"></path><path d="M513.3 429L637 390L510.3 393Z" fill="#1b2229" stroke="#1b2229"></path><path d="M639 249L742.7 261L640 150Z" fill="#272a2f" stroke="#272a2f"></path><path d="M294 320L322 412L408.7 360Z" fill="#272a2f" stroke="#272a2f"></path><path d="M243.3 397L322 412L294 320Z" fill="#37383a" stroke="#37383a"></path><path d="M454.7 0L318 0L337 55Z" fill="#323436" stroke="#323436"></path><path d="M337 55L181.3 103L251.3 205Z" fill="#09151f" stroke="#09151f"></path><path d="M714.7 371L742.7 261L639 249Z" fill="#1b2229" stroke="#1b2229"></path><path d="M125.7 230L197.3 303L251.3 205Z" fill="#2c2f33" stroke="#2c2f33"></path><path d="M251.3 205L197.3 303L294 320Z" fill="#323436" stroke="#323436"></path><path d="M197.3 303L243.3 397L294 320Z" fill="#1b2229" stroke="#1b2229"></path><path d="M334 540L418.7 540L415.7 446Z" fill="#21262c" stroke="#21262c"></path><path d="M723.7 444L714.7 371L637 390Z" fill="#1b2229" stroke="#1b2229"></path><path d="M637 390L714.7 371L639 249Z" fill="#3d3d3d" stroke="#3d3d3d"></path><path d="M750.7 113L655 0L647 124Z" fill="#101922" stroke="#101922"></path><path d="M647 124L655 0L527.3 0Z" fill="#3d3d3d" stroke="#3d3d3d"></path><path d="M781.7 170L750.7 113L640 150Z" fill="#37383a" stroke="#37383a"></path><path d="M513.3 429L638 476L637 390Z" fill="#21262c" stroke="#21262c"></path><path d="M522.3 540L638 476L513.3 429Z" fill="#101922" stroke="#101922"></path><path d="M318 0L181.3 103L337 55Z" fill="#1b2229" stroke="#1b2229"></path><path d="M868.3 206L781.7 170L742.7 261Z" fill="#323436" stroke="#323436"></path><path d="M742.7 261L781.7 170L640 150Z" fill="#101922" stroke="#101922"></path><path d="M334 540L415.7 446L322 412Z" fill="#2c2f33" stroke="#2c2f33"></path><path d="M415.7 446L522.3 540L513.3 429Z" fill="#37383a" stroke="#37383a"></path><path d="M418.7 540L522.3 540L415.7 446Z" fill="#323436" stroke="#323436"></path><path d="M638 476L723.7 444L637 390Z" fill="#2c2f33" stroke="#2c2f33"></path><path d="M827.3 371L848.3 294L742.7 261Z" fill="#1b2229" stroke="#1b2229"></path><path d="M665 540L723.7 444L638 476Z" fill="#272a2f" stroke="#272a2f"></path><path d="M123.7 357L201.3 445L243.3 397Z" fill="#2c2f33" stroke="#2c2f33"></path><path d="M181.3 103L125.7 230L251.3 205Z" fill="#00101c" stroke="#00101c"></path><path d="M201.3 445L334 540L322 412Z" fill="#161d25" stroke="#161d25"></path><path d="M201.3 445L322 412L243.3 397Z" fill="#21262c" stroke="#21262c"></path><path d="M123.7 357L243.3 397L197.3 303Z" fill="#161d25" stroke="#161d25"></path><path d="M318 0L174.3 0L181.3 103Z" fill="#21262c" stroke="#21262c"></path><path d="M181.3 103L75.7 182L125.7 230Z" fill="#37383a" stroke="#37383a"></path><path d="M125.7 230L123.7 357L197.3 303Z" fill="#00101c" stroke="#00101c"></path><path d="M522.3 540L665 540L638 476Z" fill="#1b2229" stroke="#1b2229"></path><path d="M837.3 76L768.7 0L750.7 113Z" fill="#21262c" stroke="#21262c"></path><path d="M750.7 113L768.7 0L655 0Z" fill="#09151f" stroke="#09151f"></path><path d="M827.3 371L742.7 261L714.7 371Z" fill="#161d25" stroke="#161d25"></path><path d="M781.7 170L837.3 76L750.7 113Z" fill="#323436" stroke="#323436"></path><path d="M827.3 371L714.7 371L723.7 444Z" fill="#37383a" stroke="#37383a"></path><path d="M843.3 464L827.3 371L723.7 444Z" fill="#2c2f33" stroke="#2c2f33"></path><path d="M174.3 0L92.7 109L181.3 103Z" fill="#323436" stroke="#323436"></path><path d="M125.7 230L0 305L123.7 357Z" fill="#323436" stroke="#323436"></path><path d="M92.7 109L75.7 182L181.3 103Z" fill="#37383a" stroke="#37383a"></path><path d="M868.3 206L837.3 76L781.7 170Z" fill="#101922" stroke="#101922"></path><path d="M848.3 294L868.3 206L742.7 261Z" fill="#2c2f33" stroke="#2c2f33"></path><path d="M665 540L756.7 540L723.7 444Z" fill="#1b2229" stroke="#1b2229"></path><path d="M120.7 540L178.3 540L201.3 445Z" fill="#161d25" stroke="#161d25"></path><path d="M201.3 445L178.3 540L334 540Z" fill="#2c2f33" stroke="#2c2f33"></path><path d="M756.7 540L843.3 464L723.7 444Z" fill="#323436" stroke="#323436"></path><path d="M960 331L960 245L848.3 294Z" fill="#3d3d3d" stroke="#3d3d3d"></path><path d="M848.3 294L960 245L868.3 206Z" fill="#00101c" stroke="#00101c"></path><path d="M174.3 0L69.7 0L92.7 109Z" fill="#37383a" stroke="#37383a"></path><path d="M0 123L0 158L75.7 182Z" fill="#00101c" stroke="#00101c"></path><path d="M0 418L78.7 468L123.7 357Z" fill="#00101c" stroke="#00101c"></path><path d="M123.7 357L78.7 468L201.3 445Z" fill="#21262c" stroke="#21262c"></path><path d="M0 305L125.7 230L75.7 182Z" fill="#3d3d3d" stroke="#3d3d3d"></path><path d="M78.7 468L120.7 540L201.3 445Z" fill="#323436" stroke="#323436"></path><path d="M0 123L75.7 182L92.7 109Z" fill="#272a2f" stroke="#272a2f"></path><path d="M0 158L0 305L75.7 182Z" fill="#161d25" stroke="#161d25"></path><path d="M960 113L890.3 0L837.3 76Z" fill="#1b2229" stroke="#1b2229"></path><path d="M837.3 76L890.3 0L768.7 0Z" fill="#101922" stroke="#101922"></path><path d="M960 149L837.3 76L868.3 206Z" fill="#37383a" stroke="#37383a"></path><path d="M69.7 0L0 123L92.7 109Z" fill="#2c2f33" stroke="#2c2f33"></path><path d="M0 305L0 330L123.7 357Z" fill="#37383a" stroke="#37383a"></path><path d="M756.7 540L842.3 540L843.3 464Z" fill="#1b2229" stroke="#1b2229"></path><path d="M960 331L848.3 294L827.3 371Z" fill="#37383a" stroke="#37383a"></path><path d="M960 331L827.3 371L843.3 464Z" fill="#101922" stroke="#101922"></path><path d="M960 245L960 149L868.3 206Z" fill="#09151f" stroke="#09151f"></path><path d="M960 489L960 331L843.3 464Z" fill="#161d25" stroke="#161d25"></path><path d="M960 149L960 113L837.3 76Z" fill="#09151f" stroke="#09151f"></path><path d="M0 330L0 418L123.7 357Z" fill="#3d3d3d" stroke="#3d3d3d"></path><path d="M78.7 468L0 540L120.7 540Z" fill="#21262c" stroke="#21262c"></path><path d="M69.7 0L0 0L0 123Z" fill="#00101c" stroke="#00101c"></path><path d="M960 113L960 0L890.3 0Z" fill="#1b2229" stroke="#1b2229"></path><path d="M842.3 540L960 489L843.3 464Z" fill="#37383a" stroke="#37383a"></path><path d="M0 418L0 540L78.7 468Z" fill="#00101c" stroke="#00101c"></path><path d="M842.3 540L960 540L960 489Z" fill="#37383a" stroke="#37383a"></path></g></svg>