<svg id="visual" viewBox="0 0 960 540" width="960" height="540" xmlns="http://www.w3.org/2000/svg" xmlns:xlink="http://www.w3.org/1999/xlink" version="1.1"><g stroke-width="1" stroke-linejoin="bevel"><path d="M449.7 232L413.7 181L339 257Z" fill="#2e45ce" stroke="#2e45ce"></path><path d="M413.7 181L281 197L339 257Z" fill="#334ce0" stroke="#334ce0"></path><path d="M524.3 99L429.7 109L413.7 181Z" fill="#2436ab" stroke="#2436ab"></path><path d="M413.7 181L315 60L281 197Z" fill="#040f4b" stroke="#040f4b"></path><path d="M345 393L389.7 380L339 257Z" fill="#293dbc" stroke="#293dbc"></path><path d="M339 257L389.7 380L449.7 232Z" fill="#334ce0" stroke="#334ce0"></path><path d="M389.7 380L508.3 327L449.7 232Z" fill="#09155a" stroke="#09155a"></path><path d="M449.7 232L524.3 99L413.7 181Z" fill="#3854f2" stroke="#3854f2"></path><path d="M315 60L251.3 184L281 197Z" fill="#1f2f9a" stroke="#1f2f9a"></path><path d="M281 197L229.3 286L339 257Z" fill="#1f2f9a" stroke="#1f2f9a"></path><path d="M508.3 327L557.3 238L449.7 232Z" fill="#3854f2" stroke="#3854f2"></path><path d="M250.3 338L345 393L339 257Z" fill="#1f2f9a" stroke="#1f2f9a"></path><path d="M557.3 238L558.3 205L449.7 232Z" fill="#040f4b" stroke="#040f4b"></path><path d="M251.3 184L229.3 286L281 197Z" fill="#293dbc" stroke="#293dbc"></path><path d="M229.3 286L250.3 338L339 257Z" fill="#09155a" stroke="#09155a"></path><path d="M248.3 416L358 411L345 393Z" fill="#1a2889" stroke="#1a2889"></path><path d="M345 393L358 411L389.7 380Z" fill="#1a2889" stroke="#1a2889"></path><path d="M389.7 380L559.3 416L508.3 327Z" fill="#142279" stroke="#142279"></path><path d="M558.3 205L524.3 99L449.7 232Z" fill="#293dbc" stroke="#293dbc"></path><path d="M429.7 0L315 60L429.7 109Z" fill="#1a2889" stroke="#1a2889"></path><path d="M429.7 109L315 60L413.7 181Z" fill="#2436ab" stroke="#2436ab"></path><path d="M250.3 338L248.3 416L345 393Z" fill="#2e45ce" stroke="#2e45ce"></path><path d="M123.7 344L248.3 416L250.3 338Z" fill="#293dbc" stroke="#293dbc"></path><path d="M315 60L189.3 111L251.3 184Z" fill="#1f2f9a" stroke="#1f2f9a"></path><path d="M86.7 194L99.7 274L229.3 286Z" fill="#0e1b69" stroke="#0e1b69"></path><path d="M229.3 286L123.7 344L250.3 338Z" fill="#040f4b" stroke="#040f4b"></path><path d="M524.3 99L429.7 0L429.7 109Z" fill="#3854f2" stroke="#3854f2"></path><path d="M315 60L281 0L189.3 111Z" fill="#0e1b69" stroke="#0e1b69"></path><path d="M558.3 205L615 151L524.3 99Z" fill="#142279" stroke="#142279"></path><path d="M524.3 99L541.3 0L429.7 0Z" fill="#1f2f9a" stroke="#1f2f9a"></path><path d="M667 258L615 151L558.3 205Z" fill="#2436ab" stroke="#2436ab"></path><path d="M667 258L558.3 205L557.3 238Z" fill="#040f4b" stroke="#040f4b"></path><path d="M394.7 486L559.3 416L389.7 380Z" fill="#3854f2" stroke="#3854f2"></path><path d="M508.3 327L629 369L557.3 238Z" fill="#2436ab" stroke="#2436ab"></path><path d="M394.7 486L389.7 380L358 411Z" fill="#2436ab" stroke="#2436ab"></path><path d="M321 540L394.7 486L358 411Z" fill="#1f2f9a" stroke="#1f2f9a"></path><path d="M429.7 0L281 0L315 60Z" fill="#1f2f9a" stroke="#1f2f9a"></path><path d="M559.3 416L629 369L508.3 327Z" fill="#293dbc" stroke="#293dbc"></path><path d="M629 369L667 258L557.3 238Z" fill="#2e45ce" stroke="#2e45ce"></path><path d="M648 69L541.3 0L524.3 99Z" fill="#2e45ce" stroke="#2e45ce"></path><path d="M99.7 274L123.7 344L229.3 286Z" fill="#293dbc" stroke="#293dbc"></path><path d="M86.7 194L229.3 286L251.3 184Z" fill="#1a2889" stroke="#1a2889"></path><path d="M715.7 87L648 69L615 151Z" fill="#334ce0" stroke="#334ce0"></path><path d="M615 151L648 69L524.3 99Z" fill="#1f2f9a" stroke="#1f2f9a"></path><path d="M321 540L424.7 540L394.7 486Z" fill="#142279" stroke="#142279"></path><path d="M394.7 486L424.7 540L559.3 416Z" fill="#334ce0" stroke="#334ce0"></path><path d="M559.3 416L642 462L629 369Z" fill="#09155a" stroke="#09155a"></path><path d="M321 540L358 411L248.3 416Z" fill="#3854f2" stroke="#3854f2"></path><path d="M71.7 107L86.7 194L189.3 111Z" fill="#1a2889" stroke="#1a2889"></path><path d="M189.3 111L86.7 194L251.3 184Z" fill="#334ce0" stroke="#334ce0"></path><path d="M281 0L189.3 0L189.3 111Z" fill="#0e1b69" stroke="#0e1b69"></path><path d="M243.3 540L321 540L248.3 416Z" fill="#142279" stroke="#142279"></path><path d="M783.7 249L715.7 205L667 258Z" fill="#293dbc" stroke="#293dbc"></path><path d="M667 258L715.7 205L615 151Z" fill="#2e45ce" stroke="#2e45ce"></path><path d="M729.7 0L624 0L648 69Z" fill="#040f4b" stroke="#040f4b"></path><path d="M648 69L624 0L541.3 0Z" fill="#3854f2" stroke="#3854f2"></path><path d="M562.3 540L642 462L559.3 416Z" fill="#040f4b" stroke="#040f4b"></path><path d="M629 369L765.7 392L667 258Z" fill="#1f2f9a" stroke="#1f2f9a"></path><path d="M92.7 415L243.3 540L248.3 416Z" fill="#040f4b" stroke="#040f4b"></path><path d="M110.7 0L71.7 107L189.3 111Z" fill="#1f2f9a" stroke="#1f2f9a"></path><path d="M0 339L123.7 344L99.7 274Z" fill="#040f4b" stroke="#040f4b"></path><path d="M0 339L92.7 415L123.7 344Z" fill="#3854f2" stroke="#3854f2"></path><path d="M123.7 344L92.7 415L248.3 416Z" fill="#142279" stroke="#142279"></path><path d="M0 280L99.7 274L86.7 194Z" fill="#334ce0" stroke="#334ce0"></path><path d="M424.7 540L562.3 540L559.3 416Z" fill="#293dbc" stroke="#293dbc"></path><path d="M715.7 205L715.7 87L615 151Z" fill="#142279" stroke="#142279"></path><path d="M189.3 0L110.7 0L189.3 111Z" fill="#1a2889" stroke="#1a2889"></path><path d="M667 540L727.7 424L642 462Z" fill="#3854f2" stroke="#3854f2"></path><path d="M642 462L727.7 424L629 369Z" fill="#0e1b69" stroke="#0e1b69"></path><path d="M877.3 142L850.3 73L715.7 87Z" fill="#142279" stroke="#142279"></path><path d="M765.7 392L783.7 249L667 258Z" fill="#1a2889" stroke="#1a2889"></path><path d="M0 184L0 280L86.7 194Z" fill="#2436ab" stroke="#2436ab"></path><path d="M0 184L86.7 194L71.7 107Z" fill="#2e45ce" stroke="#2e45ce"></path><path d="M0 120L0 184L71.7 107Z" fill="#1a2889" stroke="#1a2889"></path><path d="M727.7 424L765.7 392L629 369Z" fill="#293dbc" stroke="#293dbc"></path><path d="M0 280L0 339L99.7 274Z" fill="#2436ab" stroke="#2436ab"></path><path d="M92.7 415L68.7 540L243.3 540Z" fill="#040f4b" stroke="#040f4b"></path><path d="M0 0L0 120L71.7 107Z" fill="#1a2889" stroke="#1a2889"></path><path d="M850.3 73L729.7 0L715.7 87Z" fill="#334ce0" stroke="#334ce0"></path><path d="M715.7 87L729.7 0L648 69Z" fill="#040f4b" stroke="#040f4b"></path><path d="M562.3 540L667 540L642 462Z" fill="#142279" stroke="#142279"></path><path d="M888.3 447L837.3 364L765.7 392Z" fill="#3854f2" stroke="#3854f2"></path><path d="M765.7 392L813.3 274L783.7 249Z" fill="#040f4b" stroke="#040f4b"></path><path d="M877.3 142L715.7 87L715.7 205Z" fill="#09155a" stroke="#09155a"></path><path d="M0 451L68.7 540L92.7 415Z" fill="#2436ab" stroke="#2436ab"></path><path d="M0 339L0 451L92.7 415Z" fill="#1a2889" stroke="#1a2889"></path><path d="M110.7 0L0 0L71.7 107Z" fill="#2e45ce" stroke="#2e45ce"></path><path d="M829.3 540L765.7 392L727.7 424Z" fill="#09155a" stroke="#09155a"></path><path d="M765.7 392L837.3 364L813.3 274Z" fill="#293dbc" stroke="#293dbc"></path><path d="M667 540L759.7 540L727.7 424Z" fill="#2e45ce" stroke="#2e45ce"></path><path d="M877.3 142L715.7 205L783.7 249Z" fill="#0e1b69" stroke="#0e1b69"></path><path d="M877.3 142L783.7 249L813.3 274Z" fill="#09155a" stroke="#09155a"></path><path d="M960 182L877.3 142L813.3 274Z" fill="#2436ab" stroke="#2436ab"></path><path d="M0 451L0 540L68.7 540Z" fill="#09155a" stroke="#09155a"></path><path d="M960 60L853.3 0L850.3 73Z" fill="#334ce0" stroke="#334ce0"></path><path d="M850.3 73L853.3 0L729.7 0Z" fill="#2436ab" stroke="#2436ab"></path><path d="M759.7 540L829.3 540L727.7 424Z" fill="#293dbc" stroke="#293dbc"></path><path d="M960 287L960 182L813.3 274Z" fill="#0e1b69" stroke="#0e1b69"></path><path d="M829.3 540L888.3 447L765.7 392Z" fill="#0e1b69" stroke="#0e1b69"></path><path d="M960 287L813.3 274L837.3 364Z" fill="#334ce0" stroke="#334ce0"></path><path d="M877.3 142L960 60L850.3 73Z" fill="#2e45ce" stroke="#2e45ce"></path><path d="M960 326L960 287L837.3 364Z" fill="#2e45ce" stroke="#2e45ce"></path><path d="M888.3 447L960 326L837.3 364Z" fill="#1a2889" stroke="#1a2889"></path><path d="M960 182L960 60L877.3 142Z" fill="#1f2f9a" stroke="#1f2f9a"></path><path d="M960 540L960 441L888.3 447Z" fill="#1f2f9a" stroke="#1f2f9a"></path><path d="M888.3 447L960 441L960 326Z" fill="#040f4b" stroke="#040f4b"></path><path d="M960 60L960 0L853.3 0Z" fill="#1a2889" stroke="#1a2889"></path><path d="M829.3 540L960 540L888.3 447Z" fill="#3854f2" stroke="#3854f2"></path></g></svg>