<svg id="visual" viewBox="0 0 900 600" width="900" height="600" xmlns="http://www.w3.org/2000/svg" xmlns:xlink="http://www.w3.org/1999/xlink" version="1.1"><g stroke-width="1" stroke-linejoin="bevel"><path d="M455 284L491 294.1L481 263Z" fill="#2550dd" stroke="#2550dd"></path><path d="M455 284L484 308.9L491 294.1Z" fill="#00409c" stroke="#00409c"></path><path d="M500 337L512 279.1L491 294.1Z" fill="#124bc7" stroke="#124bc7"></path><path d="M491 294.1L512 279.1L481 263Z" fill="#002345" stroke="#002345"></path><path d="M466 350.7L500 337L484 308.9Z" fill="#001a30" stroke="#001a30"></path><path d="M484 308.9L500 337L491 294.1Z" fill="#3854f2" stroke="#3854f2"></path><path d="M478 206.3L456 218.1L481 263Z" fill="#3854f2" stroke="#3854f2"></path><path d="M481 263L456 218.1L455 284Z" fill="#00409c" stroke="#00409c"></path><path d="M455 284L466 350.7L484 308.9Z" fill="#2550dd" stroke="#2550dd"></path><path d="M512 279.1L478 206.3L481 263Z" fill="#3854f2" stroke="#3854f2"></path><path d="M455 284L444 360.9L466 350.7Z" fill="#003370" stroke="#003370"></path><path d="M466 350.7L520 367.9L500 337Z" fill="#003a86" stroke="#003a86"></path><path d="M382 295L444 360.9L455 284Z" fill="#001a30" stroke="#001a30"></path><path d="M478 206.3L470 197.4L456 218.1Z" fill="#2550dd" stroke="#2550dd"></path><path d="M500 337L559 307.9L512 279.1Z" fill="#00101c" stroke="#00101c"></path><path d="M512 279.1L569 251.3L478 206.3Z" fill="#002b5b" stroke="#002b5b"></path><path d="M470 197.4L423 207.3L456 218.1Z" fill="#0046b1" stroke="#0046b1"></path><path d="M456 218.1L423 207.3L455 284Z" fill="#00409c" stroke="#00409c"></path><path d="M375 235.1L382 295L455 284Z" fill="#0046b1" stroke="#0046b1"></path><path d="M444 360.9L459 374.7L466 350.7Z" fill="#00409c" stroke="#00409c"></path><path d="M500 337L561 327L559 307.9Z" fill="#002b5b" stroke="#002b5b"></path><path d="M459 374.7L520 367.9L466 350.7Z" fill="#00101c" stroke="#00101c"></path><path d="M520 367.9L561 327L500 337Z" fill="#00409c" stroke="#00409c"></path><path d="M570 310.9L569 251.3L559 307.9Z" fill="#00101c" stroke="#00101c"></path><path d="M559 307.9L569 251.3L512 279.1Z" fill="#002b5b" stroke="#002b5b"></path><path d="M480 142.6L472 148.4L470 197.4Z" fill="#00409c" stroke="#00409c"></path><path d="M561 327L570 310.9L559 307.9Z" fill="#0046b1" stroke="#0046b1"></path><path d="M423 207.3L375 235.1L455 284Z" fill="#0046b1" stroke="#0046b1"></path><path d="M322 312L369 327L382 295Z" fill="#002b5b" stroke="#002b5b"></path><path d="M382 295L386 358.7L444 360.9Z" fill="#003a86" stroke="#003a86"></path><path d="M444 360.9L397 409.6L459 374.7Z" fill="#00101c" stroke="#00101c"></path><path d="M385 183.4L394 198.3L423 207.3Z" fill="#003a86" stroke="#003a86"></path><path d="M423 207.3L394 198.3L375 235.1Z" fill="#00101c" stroke="#00101c"></path><path d="M369 327L386 358.7L382 295Z" fill="#003a86" stroke="#003a86"></path><path d="M591 337L570 310.9L561 327Z" fill="#00101c" stroke="#00101c"></path><path d="M591 337L595 312.9L570 310.9Z" fill="#003a86" stroke="#003a86"></path><path d="M570 310.9L595 312.9L569 251.3Z" fill="#124bc7" stroke="#124bc7"></path><path d="M595 312.9L593 243.1L569 251.3Z" fill="#00101c" stroke="#00101c"></path><path d="M569 251.3L578 210.3L478 206.3Z" fill="#00409c" stroke="#00409c"></path><path d="M593 243.1L578 210.3L569 251.3Z" fill="#3854f2" stroke="#3854f2"></path><path d="M594 349.7L591 337L561 327Z" fill="#003370" stroke="#003370"></path><path d="M472 148.4L385 183.4L423 207.3Z" fill="#003370" stroke="#003370"></path><path d="M394 198.3L385 183.4L375 235.1Z" fill="#002b5b" stroke="#002b5b"></path><path d="M472 148.4L423 207.3L470 197.4Z" fill="#003a86" stroke="#003a86"></path><path d="M480 142.6L470 197.4L478 206.3Z" fill="#00409c" stroke="#00409c"></path><path d="M638 206.4L578 196.4L578 210.3Z" fill="#00101c" stroke="#00101c"></path><path d="M578 210.3L548 157.6L478 206.3Z" fill="#002345" stroke="#002345"></path><path d="M595 312.9L603 238.3L593 243.1Z" fill="#003a86" stroke="#003a86"></path><path d="M593 243.1L603 238.3L578 210.3Z" fill="#002b5b" stroke="#002b5b"></path><path d="M520 367.9L594 349.7L561 327Z" fill="#124bc7" stroke="#124bc7"></path><path d="M591 337L644 315L595 312.9Z" fill="#3854f2" stroke="#3854f2"></path><path d="M595 312.9L644 315L603 238.3Z" fill="#002345" stroke="#002345"></path><path d="M437 441.6L514 415.6L459 374.7Z" fill="#00101c" stroke="#00101c"></path><path d="M459 374.7L514 415.6L520 367.9Z" fill="#002345" stroke="#002345"></path><path d="M520 367.9L540 408.7L594 349.7Z" fill="#002345" stroke="#002345"></path><path d="M548 157.6L480 142.6L478 206.3Z" fill="#124bc7" stroke="#124bc7"></path><path d="M399 114.7L363 158.4L385 183.4Z" fill="#001a30" stroke="#001a30"></path><path d="M514 415.6L540 408.7L520 367.9Z" fill="#003a86" stroke="#003a86"></path><path d="M325 368.7L361 369.9L369 327Z" fill="#3854f2" stroke="#3854f2"></path><path d="M369 327L361 369.9L386 358.7Z" fill="#3854f2" stroke="#3854f2"></path><path d="M386 358.7L397 409.6L444 360.9Z" fill="#001a30" stroke="#001a30"></path><path d="M578 196.4L548 157.6L578 210.3Z" fill="#002345" stroke="#002345"></path><path d="M361 369.9L397 409.6L386 358.7Z" fill="#003a86" stroke="#003a86"></path><path d="M317 232.3L323 262.1L375 235.1Z" fill="#002345" stroke="#002345"></path><path d="M375 235.1L323 262.1L382 295Z" fill="#00409c" stroke="#00409c"></path><path d="M548 157.6L501 130.6L480 142.6Z" fill="#003a86" stroke="#003a86"></path><path d="M399 114.7L385 183.4L472 148.4Z" fill="#001a30" stroke="#001a30"></path><path d="M323 262.1L322 312L382 295Z" fill="#002345" stroke="#002345"></path><path d="M514 415.6L546 422.6L540 408.7Z" fill="#0046b1" stroke="#0046b1"></path><path d="M540 408.7L612 415.7L594 349.7Z" fill="#0046b1" stroke="#0046b1"></path><path d="M486 464.6L546 422.6L514 415.6Z" fill="#002b5b" stroke="#002b5b"></path><path d="M325 368.7L350 379.7L361 369.9Z" fill="#003a86" stroke="#003a86"></path><path d="M361 369.9L350 379.7L397 409.6Z" fill="#001a30" stroke="#001a30"></path><path d="M418 447.6L437 441.6L397 409.6Z" fill="#124bc7" stroke="#124bc7"></path><path d="M397 409.6L437 441.6L459 374.7Z" fill="#00409c" stroke="#00409c"></path><path d="M322 217.1L317 232.3L375 235.1Z" fill="#003a86" stroke="#003a86"></path><path d="M255 284.1L294 332.9L322 312Z" fill="#2550dd" stroke="#2550dd"></path><path d="M385 183.4L322 217.1L375 235.1Z" fill="#002b5b" stroke="#002b5b"></path><path d="M418 107.7L472 148.4L480 142.6Z" fill="#00409c" stroke="#00409c"></path><path d="M385 183.4L322 183.3L322 217.1Z" fill="#00409c" stroke="#00409c"></path><path d="M650 323.9L644 315L594 349.7Z" fill="#00101c" stroke="#00101c"></path><path d="M594 349.7L644 315L591 337Z" fill="#003370" stroke="#003370"></path><path d="M322 312L325 368.7L369 327Z" fill="#3854f2" stroke="#3854f2"></path><path d="M389 497.4L418 447.6L373 495.4Z" fill="#3854f2" stroke="#3854f2"></path><path d="M294 332.9L325 368.7L322 312Z" fill="#124bc7" stroke="#124bc7"></path><path d="M418 447.6L397 409.6L341 475.3Z" fill="#002345" stroke="#002345"></path><path d="M437 441.6L486 464.6L514 415.6Z" fill="#124bc7" stroke="#124bc7"></path><path d="M658 252.3L638 206.4L603 238.3Z" fill="#0046b1" stroke="#0046b1"></path><path d="M603 238.3L638 206.4L578 210.3Z" fill="#002b5b" stroke="#002b5b"></path><path d="M578 196.4L611 158.4L548 157.6Z" fill="#00409c" stroke="#00409c"></path><path d="M549 94.7L492 90.7L501 130.6Z" fill="#002b5b" stroke="#002b5b"></path><path d="M612 415.7L650 323.9L594 349.7Z" fill="#124bc7" stroke="#124bc7"></path><path d="M644 315L658 252.3L603 238.3Z" fill="#002345" stroke="#002345"></path><path d="M322 217.1L288 223.3L317 232.3Z" fill="#00101c" stroke="#00101c"></path><path d="M363 158.4L322 183.3L385 183.4Z" fill="#00101c" stroke="#00101c"></path><path d="M454 474.4L486 464.6L437 441.6Z" fill="#00409c" stroke="#00409c"></path><path d="M492 90.7L418 107.7L480 142.6Z" fill="#001a30" stroke="#001a30"></path><path d="M363 158.4L300 156.4L322 183.3Z" fill="#3854f2" stroke="#3854f2"></path><path d="M418 107.7L399 114.7L472 148.4Z" fill="#003370" stroke="#003370"></path><path d="M638 206.4L611 158.4L578 196.4Z" fill="#002b5b" stroke="#002b5b"></path><path d="M501 130.6L492 90.7L480 142.6Z" fill="#124bc7" stroke="#124bc7"></path><path d="M650 323.9L658 252.3L644 315Z" fill="#0046b1" stroke="#0046b1"></path><path d="M288 223.3L323 262.1L317 232.3Z" fill="#00409c" stroke="#00409c"></path><path d="M255 284.1L322 312L323 262.1Z" fill="#00409c" stroke="#00409c"></path><path d="M418 107.7L397 108.6L399 114.7Z" fill="#002b5b" stroke="#002b5b"></path><path d="M399 114.7L390 98.6L363 158.4Z" fill="#0046b1" stroke="#0046b1"></path><path d="M554 508.4L612 415.7L546 422.6Z" fill="#2550dd" stroke="#2550dd"></path><path d="M546 422.6L612 415.7L540 408.7Z" fill="#00101c" stroke="#00101c"></path><path d="M549 94.7L501 130.6L548 157.6Z" fill="#3854f2" stroke="#3854f2"></path><path d="M391 87.7L390 98.6L397 108.6Z" fill="#002345" stroke="#002345"></path><path d="M418 447.6L454 474.4L437 441.6Z" fill="#00101c" stroke="#00101c"></path><path d="M322 183.3L288 223.3L322 217.1Z" fill="#00409c" stroke="#00409c"></path><path d="M681 231.1L664 228.1L658 252.3Z" fill="#2550dd" stroke="#2550dd"></path><path d="M658 252.3L664 228.1L638 206.4Z" fill="#002b5b" stroke="#002b5b"></path><path d="M638 206.4L648 163.4L611 158.4Z" fill="#3854f2" stroke="#3854f2"></path><path d="M454 474.4L466 481.4L486 464.6Z" fill="#2550dd" stroke="#2550dd"></path><path d="M486 464.6L500 493.4L546 422.6Z" fill="#124bc7" stroke="#124bc7"></path><path d="M294 332.9L292 361.7L325 368.7Z" fill="#2550dd" stroke="#2550dd"></path><path d="M325 368.7L290 397.6L350 379.7Z" fill="#002345" stroke="#002345"></path><path d="M418 447.6L389 497.4L454 474.4Z" fill="#001a30" stroke="#001a30"></path><path d="M246 341.9L292 361.7L294 332.9Z" fill="#3854f2" stroke="#3854f2"></path><path d="M597 116.6L548 157.6L611 158.4Z" fill="#003370" stroke="#003370"></path><path d="M597 116.6L578 110.6L548 157.6Z" fill="#124bc7" stroke="#124bc7"></path><path d="M578 110.6L549 94.7L548 157.6Z" fill="#2550dd" stroke="#2550dd"></path><path d="M391 87.7L397 108.6L418 107.7Z" fill="#002b5b" stroke="#002b5b"></path><path d="M397 108.6L390 98.6L399 114.7Z" fill="#001a30" stroke="#001a30"></path><path d="M322 183.3L300 156.4L288 223.3Z" fill="#003a86" stroke="#003a86"></path><path d="M648 163.4L597 116.6L611 158.4Z" fill="#2550dd" stroke="#2550dd"></path><path d="M578 110.6L569 79.9L549 94.7Z" fill="#124bc7" stroke="#124bc7"></path><path d="M676 160.6L648 163.4L638 206.4Z" fill="#003a86" stroke="#003a86"></path><path d="M412 56.9L391 87.7L418 107.7Z" fill="#003a86" stroke="#003a86"></path><path d="M325 105.7L300 156.4L363 158.4Z" fill="#002345" stroke="#002345"></path><path d="M732 223.3L681 231.1L741 322.9Z" fill="#002345" stroke="#002345"></path><path d="M664 228.1L681 223.1L638 206.4Z" fill="#00409c" stroke="#00409c"></path><path d="M466 481.4L500 493.4L486 464.6Z" fill="#0046b1" stroke="#0046b1"></path><path d="M681 231.1L681 223.1L664 228.1Z" fill="#0046b1" stroke="#0046b1"></path><path d="M325 105.7L363 158.4L390 98.6Z" fill="#002345" stroke="#002345"></path><path d="M246 341.9L290 397.6L292 361.7Z" fill="#001a30" stroke="#001a30"></path><path d="M292 361.7L290 397.6L325 368.7Z" fill="#003370" stroke="#003370"></path><path d="M454 474.4L435 540.3L466 481.4Z" fill="#2550dd" stroke="#2550dd"></path><path d="M435 540.3L505 499.3L500 493.4Z" fill="#00101c" stroke="#00101c"></path><path d="M500 493.4L524 505.3L546 422.6Z" fill="#002345" stroke="#002345"></path><path d="M243 275.1L255 284.1L288 223.3Z" fill="#124bc7" stroke="#124bc7"></path><path d="M288 223.3L255 284.1L323 262.1Z" fill="#0046b1" stroke="#0046b1"></path><path d="M597 116.6L569 79.9L578 110.6Z" fill="#00409c" stroke="#00409c"></path><path d="M549 94.7L515 46.7L492 90.7Z" fill="#003370" stroke="#003370"></path><path d="M492 90.7L412 56.9L418 107.7Z" fill="#001a30" stroke="#001a30"></path><path d="M663 51.7L569 79.9L597 116.6Z" fill="#2550dd" stroke="#2550dd"></path><path d="M505 499.3L524 505.3L500 493.4Z" fill="#3854f2" stroke="#3854f2"></path><path d="M391 87.7L325 105.7L390 98.6Z" fill="#00101c" stroke="#00101c"></path><path d="M340 474.4L397 409.6L350 379.7Z" fill="#0046b1" stroke="#0046b1"></path><path d="M466 481.4L435 540.3L500 493.4Z" fill="#001a30" stroke="#001a30"></path><path d="M505 499.3L503 555.1L524 505.3Z" fill="#124bc7" stroke="#124bc7"></path><path d="M248 221.3L243 275.1L288 223.3Z" fill="#00101c" stroke="#00101c"></path><path d="M237 330L246 341.9L294 332.9Z" fill="#124bc7" stroke="#124bc7"></path><path d="M465 24.9L412 56.9L492 90.7Z" fill="#003a86" stroke="#003a86"></path><path d="M339 50.9L307 96.7L325 105.7Z" fill="#002345" stroke="#002345"></path><path d="M681 223.1L676 160.6L638 206.4Z" fill="#00409c" stroke="#00409c"></path><path d="M648 163.4L663 51.7L597 116.6Z" fill="#3854f2" stroke="#3854f2"></path><path d="M293 442.6L340 474.4L350 379.7Z" fill="#0046b1" stroke="#0046b1"></path><path d="M270 154.6L248 221.3L288 223.3Z" fill="#001a30" stroke="#001a30"></path><path d="M270 154.6L288 223.3L300 156.4Z" fill="#001a30" stroke="#001a30"></path><path d="M340 474.4L341 475.3L397 409.6Z" fill="#001a30" stroke="#001a30"></path><path d="M341 475.3L373 495.4L418 447.6Z" fill="#00409c" stroke="#00409c"></path><path d="M237 330L294 332.9L255 284.1Z" fill="#002b5b" stroke="#002b5b"></path><path d="M290 397.6L293 442.6L350 379.7Z" fill="#00409c" stroke="#00409c"></path><path d="M569 79.9L515 46.7L549 94.7Z" fill="#0046b1" stroke="#0046b1"></path><path d="M551 555.1L554 508.4L524 505.3Z" fill="#2550dd" stroke="#2550dd"></path><path d="M524 505.3L554 508.4L546 422.6Z" fill="#2550dd" stroke="#2550dd"></path><path d="M268 135.4L270 154.6L300 156.4Z" fill="#002345" stroke="#002345"></path><path d="M681 424.6L680 409.7L612 415.7Z" fill="#003370" stroke="#003370"></path><path d="M612 415.7L680 409.7L650 323.9Z" fill="#002345" stroke="#002345"></path><path d="M741 322.9L681 231.1L658 252.3Z" fill="#00409c" stroke="#00409c"></path><path d="M340 474.4L345 497.3L341 475.3Z" fill="#0046b1" stroke="#0046b1"></path><path d="M238 420.7L293 442.6L290 397.6Z" fill="#003a86" stroke="#003a86"></path><path d="M215 305L237 330L255 284.1Z" fill="#003370" stroke="#003370"></path><path d="M246 341.9L238 420.7L290 397.6Z" fill="#00101c" stroke="#00101c"></path><path d="M215 305L255 284.1L243 275.1Z" fill="#00409c" stroke="#00409c"></path><path d="M561 0L502 35.9L515 46.7Z" fill="#00409c" stroke="#00409c"></path><path d="M515 46.7L502 35.9L492 90.7Z" fill="#124bc7" stroke="#124bc7"></path><path d="M339 50.9L325 105.7L391 87.7Z" fill="#003370" stroke="#003370"></path><path d="M325 105.7L282 110.6L300 156.4Z" fill="#003370" stroke="#003370"></path><path d="M665 467.6L681 424.6L612 415.7Z" fill="#002345" stroke="#002345"></path><path d="M732 223.3L681 223.1L681 231.1Z" fill="#003370" stroke="#003370"></path><path d="M266 480.4L345 497.3L340 474.4Z" fill="#001a30" stroke="#001a30"></path><path d="M341 475.3L345 497.3L373 495.4Z" fill="#2550dd" stroke="#2550dd"></path><path d="M373 495.4L395 529.3L389 497.4Z" fill="#3854f2" stroke="#3854f2"></path><path d="M389 497.4L435 540.3L454 474.4Z" fill="#002b5b" stroke="#002b5b"></path><path d="M282 110.6L268 135.4L300 156.4Z" fill="#124bc7" stroke="#124bc7"></path><path d="M270 154.6L233 167.4L248 221.3Z" fill="#124bc7" stroke="#124bc7"></path><path d="M732 223.3L712 188.4L681 223.1Z" fill="#003a86" stroke="#003a86"></path><path d="M681 223.1L712 188.4L676 160.6Z" fill="#002345" stroke="#002345"></path><path d="M741 322.9L650 323.9L728 396.6Z" fill="#003370" stroke="#003370"></path><path d="M502 35.9L465 24.9L492 90.7Z" fill="#003a86" stroke="#003a86"></path><path d="M412 56.9L339 50.9L391 87.7Z" fill="#00409c" stroke="#00409c"></path><path d="M307 96.7L282 110.6L325 105.7Z" fill="#0046b1" stroke="#0046b1"></path><path d="M365 539.1L395 529.3L373 495.4Z" fill="#124bc7" stroke="#124bc7"></path><path d="M190 304L215 305L243 275.1Z" fill="#003370" stroke="#003370"></path><path d="M209 422.6L238 420.7L190 387.7Z" fill="#001a30" stroke="#001a30"></path><path d="M190 304L243 275.1L164 226.1Z" fill="#2550dd" stroke="#2550dd"></path><path d="M395 529.3L435 540.3L389 497.4Z" fill="#001a30" stroke="#001a30"></path><path d="M689 452.4L703 412.7L681 424.6Z" fill="#002345" stroke="#002345"></path><path d="M681 424.6L703 412.7L680 409.7Z" fill="#002b5b" stroke="#002b5b"></path><path d="M741 322.9L658 252.3L650 323.9Z" fill="#001a30" stroke="#001a30"></path><path d="M554 508.4L665 467.6L612 415.7Z" fill="#2550dd" stroke="#2550dd"></path><path d="M250 100.6L233 167.4L268 135.4Z" fill="#003a86" stroke="#003a86"></path><path d="M268 135.4L233 167.4L270 154.6Z" fill="#003a86" stroke="#003a86"></path><path d="M278 58.9L250 100.6L282 110.6Z" fill="#002345" stroke="#002345"></path><path d="M414 5.9L339 50.9L412 56.9Z" fill="#002b5b" stroke="#002b5b"></path><path d="M728 396.6L650 323.9L680 409.7Z" fill="#00101c" stroke="#00101c"></path><path d="M665 467.6L689 452.4L681 424.6Z" fill="#003370" stroke="#003370"></path><path d="M703 412.7L728 396.6L680 409.7Z" fill="#0046b1" stroke="#0046b1"></path><path d="M435 540.3L503 555.1L505 499.3Z" fill="#124bc7" stroke="#124bc7"></path><path d="M554 508.4L665 486.4L665 467.6Z" fill="#00101c" stroke="#00101c"></path><path d="M189 339.9L246 341.9L237 330Z" fill="#002b5b" stroke="#002b5b"></path><path d="M262 506.3L343 524.1L345 497.3Z" fill="#003a86" stroke="#003a86"></path><path d="M266 480.4L340 474.4L293 442.6Z" fill="#124bc7" stroke="#124bc7"></path><path d="M345 497.3L343 524.1L373 495.4Z" fill="#001a30" stroke="#001a30"></path><path d="M416 600L443 579.1L435 540.3Z" fill="#00101c" stroke="#00101c"></path><path d="M435 540.3L443 579.1L503 555.1Z" fill="#00101c" stroke="#00101c"></path><path d="M742 425.6L728 396.6L703 412.7Z" fill="#002345" stroke="#002345"></path><path d="M637 539.1L665 486.4L554 508.4Z" fill="#001a30" stroke="#001a30"></path><path d="M665 467.6L665 486.4L689 452.4Z" fill="#003370" stroke="#003370"></path><path d="M343 524.1L365 539.1L373 495.4Z" fill="#002345" stroke="#002345"></path><path d="M728 396.6L751 331L741 322.9Z" fill="#00409c" stroke="#00409c"></path><path d="M741 322.9L773 260L732 223.3Z" fill="#00409c" stroke="#00409c"></path><path d="M502 35.9L465 0L465 24.9Z" fill="#00409c" stroke="#00409c"></path><path d="M465 24.9L414 5.9L412 56.9Z" fill="#002b5b" stroke="#002b5b"></path><path d="M561 0L465 0L502 35.9Z" fill="#3854f2" stroke="#3854f2"></path><path d="M561 0L515 46.7L569 79.9Z" fill="#003a86" stroke="#003a86"></path><path d="M425 0L414 5.9L465 24.9Z" fill="#0046b1" stroke="#0046b1"></path><path d="M503 555.1L551 555.1L524 505.3Z" fill="#003a86" stroke="#003a86"></path><path d="M164 226.1L243 275.1L248 221.3Z" fill="#00409c" stroke="#00409c"></path><path d="M215 305L189 339.9L237 330Z" fill="#003370" stroke="#003370"></path><path d="M465 0L425 0L465 24.9Z" fill="#00101c" stroke="#00101c"></path><path d="M425 0L423 0L414 5.9Z" fill="#002345" stroke="#002345"></path><path d="M287 0L278 58.9L339 50.9Z" fill="#002b5b" stroke="#002b5b"></path><path d="M238 420.7L266 480.4L293 442.6Z" fill="#002b5b" stroke="#002b5b"></path><path d="M376 600L386 592.1L365 539.1Z" fill="#00409c" stroke="#00409c"></path><path d="M278 58.9L307 96.7L339 50.9Z" fill="#002345" stroke="#002345"></path><path d="M278 58.9L282 110.6L307 96.7Z" fill="#2550dd" stroke="#2550dd"></path><path d="M282 110.6L250 100.6L268 135.4Z" fill="#124bc7" stroke="#124bc7"></path><path d="M233 167.4L201 178.3L248 221.3Z" fill="#3854f2" stroke="#3854f2"></path><path d="M551 555.1L586 551.3L554 508.4Z" fill="#002b5b" stroke="#002b5b"></path><path d="M190 304L189 339.9L215 305Z" fill="#2550dd" stroke="#2550dd"></path><path d="M238 420.7L224 471.4L266 480.4Z" fill="#00409c" stroke="#00409c"></path><path d="M712 188.4L711 108.7L676 160.6Z" fill="#002b5b" stroke="#002b5b"></path><path d="M676 160.6L711 108.7L648 163.4Z" fill="#003370" stroke="#003370"></path><path d="M732 223.3L752 189.3L712 188.4Z" fill="#0046b1" stroke="#0046b1"></path><path d="M788 223.1L752 189.3L732 223.3Z" fill="#001a30" stroke="#001a30"></path><path d="M739 111.7L711 108.7L712 188.4Z" fill="#002345" stroke="#002345"></path><path d="M198 147.4L201 178.3L233 167.4Z" fill="#00409c" stroke="#00409c"></path><path d="M599 0L561 0L569 79.9Z" fill="#00101c" stroke="#00101c"></path><path d="M752 189.3L753 182.4L712 188.4Z" fill="#124bc7" stroke="#124bc7"></path><path d="M807 195.4L753 182.4L752 189.3Z" fill="#00101c" stroke="#00101c"></path><path d="M711 108.7L663 51.7L648 163.4Z" fill="#003370" stroke="#003370"></path><path d="M325 0L339 50.9L414 5.9Z" fill="#124bc7" stroke="#124bc7"></path><path d="M386 592.1L435 540.3L395 529.3Z" fill="#002345" stroke="#002345"></path><path d="M503 555.1L532 600L551 555.1Z" fill="#00101c" stroke="#00101c"></path><path d="M619 580.1L639 553.3L586 551.3Z" fill="#124bc7" stroke="#124bc7"></path><path d="M751 331L773 260L741 322.9Z" fill="#001a30" stroke="#001a30"></path><path d="M190 387.7L238 420.7L246 341.9Z" fill="#003a86" stroke="#003a86"></path><path d="M689 452.4L742 425.6L703 412.7Z" fill="#002345" stroke="#002345"></path><path d="M728 396.6L778 357.9L751 331Z" fill="#002345" stroke="#002345"></path><path d="M751 331L821 274L773 260Z" fill="#3854f2" stroke="#3854f2"></path><path d="M712 486.4L742 425.6L689 452.4Z" fill="#2550dd" stroke="#2550dd"></path><path d="M712 486.4L689 452.4L665 486.4Z" fill="#001a30" stroke="#001a30"></path><path d="M586 551.3L637 539.1L554 508.4Z" fill="#00101c" stroke="#00101c"></path><path d="M189 339.9L190 387.7L246 341.9Z" fill="#001a30" stroke="#001a30"></path><path d="M250 100.6L198 147.4L233 167.4Z" fill="#124bc7" stroke="#124bc7"></path><path d="M201 178.3L164 226.1L248 221.3Z" fill="#0046b1" stroke="#0046b1"></path><path d="M196 108.7L198 147.4L250 100.6Z" fill="#002345" stroke="#002345"></path><path d="M650 23.9L599 0L569 79.9Z" fill="#2550dd" stroke="#2550dd"></path><path d="M639 553.3L642 542.3L637 539.1Z" fill="#001a30" stroke="#001a30"></path><path d="M637 539.1L642 542.3L665 486.4Z" fill="#2550dd" stroke="#2550dd"></path><path d="M639 553.3L637 539.1L586 551.3Z" fill="#0046b1" stroke="#0046b1"></path><path d="M224 471.4L262 506.3L266 480.4Z" fill="#00101c" stroke="#00101c"></path><path d="M266 480.4L262 506.3L345 497.3Z" fill="#003a86" stroke="#003a86"></path><path d="M365 539.1L386 592.1L395 529.3Z" fill="#003370" stroke="#003370"></path><path d="M654 0L650 23.9L671 0Z" fill="#002345" stroke="#002345"></path><path d="M663 51.7L650 23.9L569 79.9Z" fill="#00101c" stroke="#00101c"></path><path d="M772 424.7L778 357.9L728 396.6Z" fill="#001a30" stroke="#001a30"></path><path d="M694 510.3L712 486.4L665 486.4Z" fill="#00409c" stroke="#00409c"></path><path d="M742 425.6L772 424.7L728 396.6Z" fill="#001a30" stroke="#001a30"></path><path d="M745 114.6L739 111.7L712 188.4Z" fill="#124bc7" stroke="#124bc7"></path><path d="M711 108.7L738 62.9L663 51.7Z" fill="#001a30" stroke="#001a30"></path><path d="M745 114.6L712 188.4L753 182.4Z" fill="#3854f2" stroke="#3854f2"></path><path d="M194 429.6L224 471.4L209 422.6Z" fill="#001a30" stroke="#001a30"></path><path d="M209 422.6L224 471.4L238 420.7Z" fill="#0046b1" stroke="#0046b1"></path><path d="M159 182.4L164 226.1L201 178.3Z" fill="#0046b1" stroke="#0046b1"></path><path d="M123 332L145 362.9L189 339.9Z" fill="#003a86" stroke="#003a86"></path><path d="M189 339.9L145 362.9L190 387.7Z" fill="#001a30" stroke="#001a30"></path><path d="M642 542.3L694 510.3L665 486.4Z" fill="#003a86" stroke="#003a86"></path><path d="M568 600L586 551.3L551 555.1Z" fill="#00101c" stroke="#00101c"></path><path d="M703 571.1L721 542.1L694 510.3Z" fill="#002b5b" stroke="#002b5b"></path><path d="M146 372.7L194 429.6L190 387.7Z" fill="#0046b1" stroke="#0046b1"></path><path d="M190 387.7L194 429.6L209 422.6Z" fill="#003370" stroke="#003370"></path><path d="M752 102.7L745 114.6L806 122.7Z" fill="#0046b1" stroke="#0046b1"></path><path d="M739 111.7L736 94.6L711 108.7Z" fill="#003a86" stroke="#003a86"></path><path d="M800 221.1L788 223.1L773 260Z" fill="#001a30" stroke="#001a30"></path><path d="M773 260L788 223.1L732 223.3Z" fill="#002b5b" stroke="#002b5b"></path><path d="M443 579.1L507 600L503 555.1Z" fill="#00409c" stroke="#00409c"></path><path d="M423 0L325 0L414 5.9Z" fill="#003370" stroke="#003370"></path><path d="M278 58.9L236 64.9L250 100.6Z" fill="#00409c" stroke="#00409c"></path><path d="M752 102.7L736 94.6L739 111.7Z" fill="#00101c" stroke="#00101c"></path><path d="M224 471.4L259 521.1L262 506.3Z" fill="#002b5b" stroke="#002b5b"></path><path d="M262 506.3L309 561.1L343 524.1Z" fill="#124bc7" stroke="#124bc7"></path><path d="M443 579.1L420 600L507 600Z" fill="#002345" stroke="#002345"></path><path d="M216 541.1L259 521.1L224 471.4Z" fill="#003370" stroke="#003370"></path><path d="M309 561.1L365 539.1L343 524.1Z" fill="#003a86" stroke="#003a86"></path><path d="M416 600L420 600L443 579.1Z" fill="#002b5b" stroke="#002b5b"></path><path d="M231 0L236 64.9L278 58.9Z" fill="#001a30" stroke="#001a30"></path><path d="M507 600L532 600L503 555.1Z" fill="#002345" stroke="#002345"></path><path d="M386 592.1L416 600L435 540.3Z" fill="#001a30" stroke="#001a30"></path><path d="M259 521.1L309 561.1L262 506.3Z" fill="#0046b1" stroke="#0046b1"></path><path d="M119 234.1L152 247.3L164 226.1Z" fill="#0046b1" stroke="#0046b1"></path><path d="M164 226.1L152 247.3L190 304Z" fill="#3854f2" stroke="#3854f2"></path><path d="M159 182.4L201 178.3L198 147.4Z" fill="#002b5b" stroke="#002b5b"></path><path d="M236 64.9L196 108.7L250 100.6Z" fill="#3854f2" stroke="#3854f2"></path><path d="M774 484.4L742 425.6L712 486.4Z" fill="#002345" stroke="#002345"></path><path d="M774 484.4L772 424.7L742 425.6Z" fill="#002b5b" stroke="#002b5b"></path><path d="M807 155.6L745 114.6L753 182.4Z" fill="#002b5b" stroke="#002b5b"></path><path d="M745 114.6L752 102.7L739 111.7Z" fill="#002b5b" stroke="#002b5b"></path><path d="M671 0L650 23.9L663 51.7Z" fill="#2550dd" stroke="#2550dd"></path><path d="M821 274L800 221.1L773 260Z" fill="#00101c" stroke="#00101c"></path><path d="M788 223.1L807 195.4L752 189.3Z" fill="#003a86" stroke="#003a86"></path><path d="M807 195.4L845 221.3L831 186.4Z" fill="#3854f2" stroke="#3854f2"></path><path d="M605 600L619 580.1L586 551.3Z" fill="#003370" stroke="#003370"></path><path d="M703 571.1L694 510.3L642 542.3Z" fill="#003370" stroke="#003370"></path><path d="M532 600L568 600L551 555.1Z" fill="#001a30" stroke="#001a30"></path><path d="M157 114.6L159 182.4L198 147.4Z" fill="#3854f2" stroke="#3854f2"></path><path d="M188 69.9L189 113.7L196 108.7Z" fill="#00409c" stroke="#00409c"></path><path d="M196 108.7L189 113.7L198 147.4Z" fill="#3854f2" stroke="#3854f2"></path><path d="M309 561.1L376 600L365 539.1Z" fill="#002345" stroke="#002345"></path><path d="M386 592.1L376 600L416 600Z" fill="#00409c" stroke="#00409c"></path><path d="M738 62.9L711 108.7L736 94.6Z" fill="#003a86" stroke="#003a86"></path><path d="M650 23.9L654 0L599 0Z" fill="#124bc7" stroke="#124bc7"></path><path d="M325 0L287 0L339 50.9Z" fill="#0046b1" stroke="#0046b1"></path><path d="M236 64.9L188 69.9L196 108.7Z" fill="#001a30" stroke="#001a30"></path><path d="M123 332L189 339.9L190 304Z" fill="#00101c" stroke="#00101c"></path><path d="M194 429.6L174 470.4L224 471.4Z" fill="#00409c" stroke="#00409c"></path><path d="M145 362.9L146 372.7L190 387.7Z" fill="#00409c" stroke="#00409c"></path><path d="M752 102.7L738 62.9L736 94.6Z" fill="#2550dd" stroke="#2550dd"></path><path d="M782 41.9L738 62.9L752 102.7Z" fill="#3854f2" stroke="#3854f2"></path><path d="M821 274L751 331L778 357.9Z" fill="#001a30" stroke="#001a30"></path><path d="M800 221.1L807 195.4L788 223.1Z" fill="#3854f2" stroke="#3854f2"></path><path d="M568 600L605 600L586 551.3Z" fill="#3854f2" stroke="#3854f2"></path><path d="M703 571.1L642 542.3L639 553.3Z" fill="#124bc7" stroke="#124bc7"></path><path d="M708 22.9L671 0L663 51.7Z" fill="#2550dd" stroke="#2550dd"></path><path d="M119 234.1L129 282L152 247.3Z" fill="#0046b1" stroke="#0046b1"></path><path d="M152 247.3L129 282L190 304Z" fill="#3854f2" stroke="#3854f2"></path><path d="M145 362.9L106 363.9L146 372.7Z" fill="#001a30" stroke="#001a30"></path><path d="M825 356.9L821 274L778 357.9Z" fill="#001a30" stroke="#001a30"></path><path d="M738 62.9L708 22.9L663 51.7Z" fill="#00409c" stroke="#00409c"></path><path d="M148 466.6L174 470.4L194 429.6Z" fill="#001a30" stroke="#001a30"></path><path d="M268 600L308 600L309 561.1Z" fill="#00409c" stroke="#00409c"></path><path d="M831 186.4L807 155.6L807 195.4Z" fill="#001a30" stroke="#001a30"></path><path d="M807 195.4L807 155.6L753 182.4Z" fill="#0046b1" stroke="#0046b1"></path><path d="M129 282L123 332L190 304Z" fill="#3854f2" stroke="#3854f2"></path><path d="M146 372.7L148 466.6L194 429.6Z" fill="#0046b1" stroke="#0046b1"></path><path d="M189 113.7L157 114.6L198 147.4Z" fill="#124bc7" stroke="#124bc7"></path><path d="M159 182.4L119 234.1L164 226.1Z" fill="#00409c" stroke="#00409c"></path><path d="M200 11.9L188 69.9L236 64.9Z" fill="#0046b1" stroke="#0046b1"></path><path d="M727 0L708 22.9L738 62.9Z" fill="#00409c" stroke="#00409c"></path><path d="M727 0L694 0L708 22.9Z" fill="#0046b1" stroke="#0046b1"></path><path d="M708 22.9L694 0L671 0Z" fill="#2550dd" stroke="#2550dd"></path><path d="M830 371.7L825 356.9L778 357.9Z" fill="#124bc7" stroke="#124bc7"></path><path d="M655 600L639 553.3L619 580.1Z" fill="#2550dd" stroke="#2550dd"></path><path d="M694 510.3L721 542.1L712 486.4Z" fill="#00101c" stroke="#00101c"></path><path d="M772 424.7L830 371.7L778 357.9Z" fill="#001a30" stroke="#001a30"></path><path d="M268 600L309 561.1L259 521.1Z" fill="#003370" stroke="#003370"></path><path d="M309 561.1L308 600L376 600Z" fill="#001a30" stroke="#001a30"></path><path d="M83 181.3L119 234.1L159 182.4Z" fill="#2550dd" stroke="#2550dd"></path><path d="M81 319L106 363.9L123 332Z" fill="#00409c" stroke="#00409c"></path><path d="M188 69.9L157 114.6L189 113.7Z" fill="#003370" stroke="#003370"></path><path d="M872 268.1L835 266L821 274Z" fill="#003370" stroke="#003370"></path><path d="M821 274L835 266L800 221.1Z" fill="#002b5b" stroke="#002b5b"></path><path d="M721 542.1L774 484.4L712 486.4Z" fill="#00409c" stroke="#00409c"></path><path d="M605 600L655 600L619 580.1Z" fill="#003370" stroke="#003370"></path><path d="M825 430.6L830 371.7L772 424.7Z" fill="#2550dd" stroke="#2550dd"></path><path d="M825 356.9L861 360.7L821 274Z" fill="#124bc7" stroke="#124bc7"></path><path d="M159 504.4L216 541.1L224 471.4Z" fill="#001a30" stroke="#001a30"></path><path d="M875 92.6L806 122.7L807 155.6Z" fill="#2550dd" stroke="#2550dd"></path><path d="M807 155.6L806 122.7L745 114.6Z" fill="#001a30" stroke="#001a30"></path><path d="M216 541.1L221 548.3L259 521.1Z" fill="#2550dd" stroke="#2550dd"></path><path d="M655 600L703 571.1L639 553.3Z" fill="#003a86" stroke="#003a86"></path><path d="M721 542.1L745 558.1L774 484.4Z" fill="#003a86" stroke="#003a86"></path><path d="M845 221.3L807 195.4L800 221.1Z" fill="#0046b1" stroke="#0046b1"></path><path d="M287 0L231 0L278 58.9Z" fill="#124bc7" stroke="#124bc7"></path><path d="M127 135.6L159 182.4L157 114.6Z" fill="#00409c" stroke="#00409c"></path><path d="M848 215.3L845 221.3L900 230.1Z" fill="#0046b1" stroke="#0046b1"></path><path d="M835 266L845 221.3L800 221.1Z" fill="#3854f2" stroke="#3854f2"></path><path d="M851 64.7L782 41.9L806 122.7Z" fill="#002345" stroke="#002345"></path><path d="M89 395.7L148 466.6L146 372.7Z" fill="#0046b1" stroke="#0046b1"></path><path d="M174 470.4L159 504.4L224 471.4Z" fill="#3854f2" stroke="#3854f2"></path><path d="M216 541.1L155 548.3L221 548.3Z" fill="#003370" stroke="#003370"></path><path d="M127 135.6L157 114.6L98 111.7Z" fill="#0046b1" stroke="#0046b1"></path><path d="M127 135.6L124 143.4L159 182.4Z" fill="#003a86" stroke="#003a86"></path><path d="M98 111.7L157 114.6L98 97.7Z" fill="#3854f2" stroke="#3854f2"></path><path d="M92 285.1L123 332L129 282Z" fill="#0046b1" stroke="#0046b1"></path><path d="M123 332L106 363.9L145 362.9Z" fill="#00409c" stroke="#00409c"></path><path d="M92 285.1L129 282L119 234.1Z" fill="#124bc7" stroke="#124bc7"></path><path d="M782 41.9L727 0L738 62.9Z" fill="#2550dd" stroke="#2550dd"></path><path d="M872 268.1L845 221.3L835 266Z" fill="#003370" stroke="#003370"></path><path d="M845 221.3L848 215.3L831 186.4Z" fill="#2550dd" stroke="#2550dd"></path><path d="M221 548.3L268 600L259 521.1Z" fill="#3854f2" stroke="#3854f2"></path><path d="M823 469.4L819 443.4L774 484.4Z" fill="#0046b1" stroke="#0046b1"></path><path d="M774 484.4L819 443.4L772 424.7Z" fill="#002b5b" stroke="#002b5b"></path><path d="M819 443.4L825 430.6L772 424.7Z" fill="#002b5b" stroke="#002b5b"></path><path d="M830 371.7L861 360.7L825 356.9Z" fill="#00409c" stroke="#00409c"></path><path d="M79 227.3L92 285.1L119 234.1Z" fill="#0046b1" stroke="#0046b1"></path><path d="M231 0L200 11.9L236 64.9Z" fill="#0046b1" stroke="#0046b1"></path><path d="M731 600L745 558.1L703 571.1Z" fill="#003a86" stroke="#003a86"></path><path d="M703 571.1L745 558.1L721 542.1Z" fill="#00409c" stroke="#00409c"></path><path d="M140 502.3L159 504.4L148 466.6Z" fill="#002b5b" stroke="#002b5b"></path><path d="M148 466.6L159 504.4L174 470.4Z" fill="#00409c" stroke="#00409c"></path><path d="M221 548.3L243 600L268 600Z" fill="#3854f2" stroke="#3854f2"></path><path d="M231 0L209 0L200 11.9Z" fill="#124bc7" stroke="#124bc7"></path><path d="M774 0L782 41.9L805 12.9Z" fill="#0046b1" stroke="#0046b1"></path><path d="M806 122.7L782 41.9L752 102.7Z" fill="#002b5b" stroke="#002b5b"></path><path d="M127 135.6L108 145.6L124 143.4Z" fill="#002b5b" stroke="#002b5b"></path><path d="M124 143.4L83 181.3L159 182.4Z" fill="#124bc7" stroke="#124bc7"></path><path d="M98 111.7L108 145.6L127 135.6Z" fill="#124bc7" stroke="#124bc7"></path><path d="M823 469.4L825 430.6L819 443.4Z" fill="#002b5b" stroke="#002b5b"></path><path d="M900 397.6L851 396.6L900 418.7Z" fill="#001a30" stroke="#001a30"></path><path d="M825 430.6L851 396.6L830 371.7Z" fill="#002345" stroke="#002345"></path><path d="M169 600L243 600L221 548.3Z" fill="#003a86" stroke="#003a86"></path><path d="M851 396.6L861 360.7L830 371.7Z" fill="#0046b1" stroke="#0046b1"></path><path d="M823 509.3L823 469.4L774 484.4Z" fill="#3854f2" stroke="#3854f2"></path><path d="M92 285.1L81 319L123 332Z" fill="#002345" stroke="#002345"></path><path d="M83 436.4L140 502.3L148 466.6Z" fill="#002b5b" stroke="#002b5b"></path><path d="M65 335.9L81 319L34 258.1Z" fill="#003a86" stroke="#003a86"></path><path d="M851 396.6L864 361.9L861 360.7Z" fill="#124bc7" stroke="#124bc7"></path><path d="M861 360.7L872 268.1L821 274Z" fill="#2550dd" stroke="#2550dd"></path><path d="M900 283L872 268.1L900 319.9Z" fill="#003370" stroke="#003370"></path><path d="M805 12.9L782 41.9L851 64.7Z" fill="#00409c" stroke="#00409c"></path><path d="M83 181.3L79 227.3L119 234.1Z" fill="#00101c" stroke="#00101c"></path><path d="M89 395.7L146 372.7L106 363.9Z" fill="#00409c" stroke="#00409c"></path><path d="M159 504.4L155 548.3L216 541.1Z" fill="#3854f2" stroke="#3854f2"></path><path d="M67 338.9L89 395.7L106 363.9Z" fill="#3854f2" stroke="#3854f2"></path><path d="M108 145.6L83 181.3L124 143.4Z" fill="#002b5b" stroke="#002b5b"></path><path d="M34 146.4L83 181.3L108 145.6Z" fill="#002b5b" stroke="#002b5b"></path><path d="M655 600L731 600L703 571.1Z" fill="#00409c" stroke="#00409c"></path><path d="M745 558.1L803 529.3L774 484.4Z" fill="#00409c" stroke="#00409c"></path><path d="M209 0L171 7.9L200 11.9Z" fill="#001a30" stroke="#001a30"></path><path d="M200 11.9L171 7.9L188 69.9Z" fill="#00101c" stroke="#00101c"></path><path d="M900 418.7L851 396.6L825 430.6Z" fill="#00101c" stroke="#00101c"></path><path d="M900 397.6L900 319.9L864 361.9Z" fill="#003370" stroke="#003370"></path><path d="M825 562.1L803 529.3L745 558.1Z" fill="#3854f2" stroke="#3854f2"></path><path d="M782 41.9L774 0L727 0Z" fill="#2550dd" stroke="#2550dd"></path><path d="M806 122.7L875 92.6L851 64.7Z" fill="#00101c" stroke="#00101c"></path><path d="M65 335.9L67 338.9L81 319Z" fill="#3854f2" stroke="#3854f2"></path><path d="M81 319L67 338.9L106 363.9Z" fill="#002345" stroke="#002345"></path><path d="M81 319L92 285.1L34 258.1Z" fill="#001a30" stroke="#001a30"></path><path d="M34 258.1L92 285.1L79 227.3Z" fill="#00101c" stroke="#00101c"></path><path d="M67 338.9L77 399.6L89 395.7Z" fill="#001a30" stroke="#001a30"></path><path d="M98 97.7L157 114.6L188 69.9Z" fill="#2550dd" stroke="#2550dd"></path><path d="M38 373.7L77 399.6L67 338.9Z" fill="#00101c" stroke="#00101c"></path><path d="M89 395.7L83 436.4L148 466.6Z" fill="#124bc7" stroke="#124bc7"></path><path d="M731 600L742 600L745 558.1Z" fill="#001a30" stroke="#001a30"></path><path d="M877 477.3L823 509.3L854 522.1Z" fill="#00409c" stroke="#00409c"></path><path d="M803 529.3L823 509.3L774 484.4Z" fill="#003a86" stroke="#003a86"></path><path d="M143 544.1L155 548.3L159 504.4Z" fill="#002b5b" stroke="#002b5b"></path><path d="M143 544.1L159 504.4L140 502.3Z" fill="#3854f2" stroke="#3854f2"></path><path d="M141 0L98 97.7L188 69.9Z" fill="#2550dd" stroke="#2550dd"></path><path d="M98 111.7L34 146.4L108 145.6Z" fill="#124bc7" stroke="#124bc7"></path><path d="M63 435.4L83 436.4L77 399.6Z" fill="#0046b1" stroke="#0046b1"></path><path d="M77 399.6L83 436.4L89 395.7Z" fill="#00409c" stroke="#00409c"></path><path d="M89 547.3L143 544.1L140 502.3Z" fill="#2550dd" stroke="#2550dd"></path><path d="M155 548.3L169 600L221 548.3Z" fill="#001a30" stroke="#001a30"></path><path d="M900 319.9L861 360.7L864 361.9Z" fill="#001a30" stroke="#001a30"></path><path d="M900 319.9L872 268.1L861 360.7Z" fill="#0046b1" stroke="#0046b1"></path><path d="M872 268.1L900 237.3L845 221.3Z" fill="#124bc7" stroke="#124bc7"></path><path d="M900 156.4L831 186.4L848 215.3Z" fill="#003a86" stroke="#003a86"></path><path d="M900 397.6L864 361.9L851 396.6Z" fill="#124bc7" stroke="#124bc7"></path><path d="M900 283L900 237.3L872 268.1Z" fill="#2550dd" stroke="#2550dd"></path><path d="M900 237.3L900 230.1L845 221.3Z" fill="#3854f2" stroke="#3854f2"></path><path d="M209 0L152 0L171 7.9Z" fill="#002345" stroke="#002345"></path><path d="M171 7.9L141 0L188 69.9Z" fill="#001a30" stroke="#001a30"></path><path d="M875 92.6L807 155.6L900 156.4Z" fill="#124bc7" stroke="#124bc7"></path><path d="M152 0L141 0L171 7.9Z" fill="#002345" stroke="#002345"></path><path d="M61 63.9L79 92.6L98 97.7Z" fill="#002345" stroke="#002345"></path><path d="M98 97.7L79 92.6L98 111.7Z" fill="#002345" stroke="#002345"></path><path d="M0 237.1L34 258.1L0 226.3Z" fill="#002b5b" stroke="#002b5b"></path><path d="M38 373.7L63 435.4L77 399.6Z" fill="#001a30" stroke="#001a30"></path><path d="M83 436.4L89 547.3L140 502.3Z" fill="#00409c" stroke="#00409c"></path><path d="M900 418.7L825 430.6L877 477.3Z" fill="#001a30" stroke="#001a30"></path><path d="M166 600L155 548.3L143 544.1Z" fill="#2550dd" stroke="#2550dd"></path><path d="M166 600L169 600L155 548.3Z" fill="#001a30" stroke="#001a30"></path><path d="M34 258.1L79 227.3L0 226.3Z" fill="#00409c" stroke="#00409c"></path><path d="M65 335.9L38 373.7L67 338.9Z" fill="#00409c" stroke="#00409c"></path><path d="M900 156.4L807 155.6L831 186.4Z" fill="#0046b1" stroke="#0046b1"></path><path d="M900 230.1L900 156.4L848 215.3Z" fill="#00101c" stroke="#00101c"></path><path d="M104 600L166 600L143 544.1Z" fill="#00409c" stroke="#00409c"></path><path d="M877 477.3L825 430.6L823 469.4Z" fill="#124bc7" stroke="#124bc7"></path><path d="M0 318.9L38 373.7L65 335.9Z" fill="#0046b1" stroke="#0046b1"></path><path d="M825 562.1L823 509.3L803 529.3Z" fill="#00409c" stroke="#00409c"></path><path d="M823 509.3L877 477.3L823 469.4Z" fill="#002b5b" stroke="#002b5b"></path><path d="M742 600L825 562.1L745 558.1Z" fill="#003370" stroke="#003370"></path><path d="M825 562.1L854 522.1L823 509.3Z" fill="#001a30" stroke="#001a30"></path><path d="M900 156.4L900 112.6L875 92.6Z" fill="#0046b1" stroke="#0046b1"></path><path d="M900 68.9L866 35.9L851 64.7Z" fill="#00409c" stroke="#00409c"></path><path d="M851 64.7L866 35.9L805 12.9Z" fill="#00409c" stroke="#00409c"></path><path d="M0 110.6L34 146.4L79 92.6Z" fill="#124bc7" stroke="#124bc7"></path><path d="M79 92.6L34 146.4L98 111.7Z" fill="#003370" stroke="#003370"></path><path d="M900 68.9L851 64.7L875 92.6Z" fill="#00409c" stroke="#00409c"></path><path d="M805 12.9L873 0L774 0Z" fill="#003a86" stroke="#003a86"></path><path d="M141 0L61 63.9L98 97.7Z" fill="#124bc7" stroke="#124bc7"></path><path d="M60 549.1L83 436.4L63 435.4Z" fill="#2550dd" stroke="#2550dd"></path><path d="M60 549.1L89 547.3L83 436.4Z" fill="#001a30" stroke="#001a30"></path><path d="M900 112.6L900 80.7L875 92.6Z" fill="#001a30" stroke="#001a30"></path><path d="M0 237.1L0 277L34 258.1Z" fill="#001a30" stroke="#001a30"></path><path d="M34 258.1L0 318.9L65 335.9Z" fill="#00101c" stroke="#00101c"></path><path d="M38 373.7L0 407.7L63 435.4Z" fill="#003a86" stroke="#003a86"></path><path d="M900 80.7L900 68.9L875 92.6Z" fill="#003370" stroke="#003370"></path><path d="M900 522.1L900 495.4L854 522.1Z" fill="#2550dd" stroke="#2550dd"></path><path d="M854 522.1L900 495.4L877 477.3Z" fill="#0046b1" stroke="#0046b1"></path><path d="M877 477.3L900 495.4L900 418.7Z" fill="#3854f2" stroke="#3854f2"></path><path d="M0 277L0 318.9L34 258.1Z" fill="#00101c" stroke="#00101c"></path><path d="M0 226.3L79 227.3L0 208.4Z" fill="#003a86" stroke="#003a86"></path><path d="M79 227.3L83 181.3L0 208.4Z" fill="#002345" stroke="#002345"></path><path d="M0 208.4L83 181.3L34 146.4Z" fill="#003a86" stroke="#003a86"></path><path d="M0 110.6L0 208.4L34 146.4Z" fill="#124bc7" stroke="#124bc7"></path><path d="M141 0L81 0L61 63.9Z" fill="#001a30" stroke="#001a30"></path><path d="M61 63.9L0 110.6L79 92.6Z" fill="#3854f2" stroke="#3854f2"></path><path d="M742 600L844 600L825 562.1Z" fill="#124bc7" stroke="#124bc7"></path><path d="M825 562.1L868 600L854 522.1Z" fill="#002b5b" stroke="#002b5b"></path><path d="M900 0L873 0L866 35.9Z" fill="#00101c" stroke="#00101c"></path><path d="M866 35.9L873 0L805 12.9Z" fill="#002345" stroke="#002345"></path><path d="M900 523.3L900 522.1L854 522.1Z" fill="#003a86" stroke="#003a86"></path><path d="M89 547.3L104 600L143 544.1Z" fill="#2550dd" stroke="#2550dd"></path><path d="M57 600L104 600L89 547.3Z" fill="#2550dd" stroke="#2550dd"></path><path d="M868 600L900 523.3L854 522.1Z" fill="#003a86" stroke="#003a86"></path><path d="M0 318.9L0 407.7L38 373.7Z" fill="#001a30" stroke="#001a30"></path><path d="M11 463.6L60 549.1L63 435.4Z" fill="#001a30" stroke="#001a30"></path><path d="M0 437.4L11 463.6L63 435.4Z" fill="#00101c" stroke="#00101c"></path><path d="M81 0L64 0L61 63.9Z" fill="#001a30" stroke="#001a30"></path><path d="M0 407.7L0 437.4L63 435.4Z" fill="#001a30" stroke="#001a30"></path><path d="M0 72.7L0 110.6L61 63.9Z" fill="#002b5b" stroke="#002b5b"></path><path d="M844 600L868 600L825 562.1Z" fill="#001a30" stroke="#001a30"></path><path d="M0 437.4L0 467.6L11 463.6Z" fill="#00409c" stroke="#00409c"></path><path d="M0 523.3L22 547.3L60 549.1Z" fill="#2550dd" stroke="#2550dd"></path><path d="M900 68.9L900 0L866 35.9Z" fill="#003a86" stroke="#003a86"></path><path d="M64 0L19 49.7L61 63.9Z" fill="#002b5b" stroke="#002b5b"></path><path d="M19 49.7L0 72.7L61 63.9Z" fill="#002345" stroke="#002345"></path><path d="M0 523.3L60 549.1L11 463.6Z" fill="#00101c" stroke="#00101c"></path><path d="M60 549.1L57 600L89 547.3Z" fill="#124bc7" stroke="#124bc7"></path><path d="M20 580.1L57 600L60 549.1Z" fill="#0046b1" stroke="#0046b1"></path><path d="M868 600L900 600L900 523.3Z" fill="#003a86" stroke="#003a86"></path><path d="M64 0L15 14.9L19 49.7Z" fill="#2550dd" stroke="#2550dd"></path><path d="M19 49.7L0 7.9L0 72.7Z" fill="#00101c" stroke="#00101c"></path><path d="M0 467.6L0 523.3L11 463.6Z" fill="#2550dd" stroke="#2550dd"></path><path d="M22 547.3L20 580.1L60 549.1Z" fill="#003370" stroke="#003370"></path><path d="M0 556.1L20 580.1L22 547.3Z" fill="#002345" stroke="#002345"></path><path d="M0 523.3L0 556.1L22 547.3Z" fill="#001a30" stroke="#001a30"></path><path d="M0 0L0 7.9L15 14.9Z" fill="#0046b1" stroke="#0046b1"></path><path d="M15 14.9L0 7.9L19 49.7Z" fill="#002b5b" stroke="#002b5b"></path><path d="M64 0L0 0L15 14.9Z" fill="#3854f2" stroke="#3854f2"></path><path d="M0 556.1L0 600L20 580.1Z" fill="#00101c" stroke="#00101c"></path><path d="M20 580.1L0 600L57 600Z" fill="#002b5b" stroke="#002b5b"></path></g></svg>